<?xml version="1.0" standalone="no"?>
<!DOCTYPE svg PUBLIC "-//W3C//DTD SVG 20010904//EN"
 "http://www.w3.org/TR/2001/REC-SVG-20010904/DTD/svg10.dtd">
<svg version="1.0" xmlns="http://www.w3.org/2000/svg"
 width="319.000000pt" height="319.000000pt" viewBox="0 0 319.000000 319.000000"
 preserveAspectRatio="xMidYMid meet">
<metadata>
Created by potrace 1.11, written by Peter Selinger 2001-2013
</metadata>
<g transform="translate(0.000000,319.000000) scale(0.100000,-0.100000)"
fill="#000000" stroke="none">
<path d="M488 3173 c-142 -42 -187 -247 -76 -350 58 -54 35 -53 870 -53 l773
0 -505 -504 c-334 -334 -511 -518 -522 -543 -22 -48 -22 -108 0 -156 11 -26
200 -221 567 -588 l550 -549 -702 0 -703 0 0 173 c0 197 -9 230 -76 285 -99
81 -259 51 -312 -60 -20 -40 -21 -63 -23 -353 -1 -195 2 -319 9 -336 17 -42
64 -91 107 -110 38 -18 94 -19 1145 -19 1054 0 1107 1 1146 19 103 47 150 181
99 281 -7 14 -306 317 -664 675 -358 357 -651 654 -651 660 0 6 273 283 606
615 354 353 612 618 620 637 19 43 18 127 -2 169 -22 46 -86 102 -126 109 -18
3 -496 7 -1062 8 -766 2 -1039 -1 -1068 -10z"/>
</g>
</svg>
